<?xml version="1.0" encoding="utf-8"?>
<!-- Generator: Adobe Illustrator 23.1.1, SVG Export Plug-In . SVG Version: 6.00 Build 0)  -->
<svg version="1.1" id="Layer_1" xmlns="http://www.w3.org/2000/svg" xmlns:xlink="http://www.w3.org/1999/xlink" x="0px" y="0px"
	 viewBox="0 0 512 512" style="enable-background:new 0 0 512 512;" xml:space="preserve">
<style type="text/css">
	.st0{fill:#FFFFFF;}
</style>
<path class="st0" d="M0,168v-16c0-13.3,10.7-24,24-24h360V80c0-21.4,25.9-32,41-17l80,80c9.4,9.4,9.4,24.6,0,33.9l-80,80
	c-15,15-41,4.5-41-17v-48H24C10.7,192,0,181.3,0,168z M488,320H128v-48c0-21.3-25.9-32.1-41-17L7,335c-9.4,9.4-9.4,24.6,0,33.9
	l80,80c15,15,41,4.5,41-17v-48h360c13.3,0,24-10.7,24-24v-16C512,330.7,501.3,320,488,320z"/>
</svg>
