<?xml version="1.0" encoding="utf-8"?>
<!-- Generator: Adobe Illustrator 23.0.3, SVG Export Plug-In . SVG Version: 6.00 Build 0)  -->
<svg version="1.1" id="Capa_1" xmlns="http://www.w3.org/2000/svg" xmlns:xlink="http://www.w3.org/1999/xlink" x="0px" y="0px"
	 viewBox="0 0 512 512" style="enable-background:new 0 0 512 512;" xml:space="preserve">
<style type="text/css">
	.st0{fill:#FFFFFF;}
</style>
<g>
	<path class="st0" d="M369.5,180c-45.6,0-63.6,31.4-73.1,54.2c-7.3-14.9-22.7-25.1-40.4-25.1s-33,10.3-40.4,25.1
		c-9.5-22.8-27.5-54.2-73.1-54.2C37.5,180,0.2,392.2,0.2,435.1c0,56.8,31.9,76.9,59.2,76.9c48,0,99.6-82.1,124.5-123h144.4
		c24.9,41,76.7,123,124.5,123c27.3,0,59.2-20.1,59.2-76.9C511.9,417,483.8,180,369.5,180L369.5,180z M166.1,299h-15v15
		c0,8.3-6.7,15-15,15s-15-6.7-15-15v-15h-15c-8.3,0-15-6.7-15-15s6.7-15,15-15h15v-15c0-8.3,6.7-15,15-15s15,6.7,15,15v15h15
		c8.3,0,15,6.7,15,15S174.3,299,166.1,299z M286.1,329h-60c-8.3,0-15-6.7-15-15s6.7-15,15-15h60c8.3,0,15,6.7,15,15
		S294.3,329,286.1,329z M376,239c8.3,0,15,6.7,15,15c0,8.3-6.7,15-15,15s-15-6.7-15-15C361,245.7,367.8,239,376,239z M346,299
		c-8.3,0-15-6.7-15-15s6.7-15,15-15c8.3,0,15,6.7,15,15S354.3,299,346,299z M376,329c-8.3,0-15-6.7-15-15s6.7-15,15-15s15,6.7,15,15
		S384.3,329,376,329z M406,299c-8.3,0-15-6.7-15-15s6.7-15,15-15s15,6.7,15,15S414.3,299,406,299z"/>
	<g>
		<path class="st0" d="M272.3,180.7c-5.2-1.1-10.7-1.7-16.2-1.7c-4.7,0-9.4,0.4-13.9,1.3c-1.3-19.3-5.6-39.4-15.9-49.8
			c-26.5-26.5-92.3-8-130.5-8.5C31.6,121-0.8,84.8,0.1,39.1c0.2-9.2,0.7-18.7,3.6-28.4c2.4-7.9,10.8-12.4,18.7-10
			c7.9,2.4,12.4,10.7,10,18.6c-14.3,48.7,17.3,85.2,100.9,70c34.6-6.5,88.2-5.8,114,20.1C262,123.9,270.4,147.9,272.3,180.7z"/>
	</g>
</g>
</svg>
