<svg width="20" height="20" viewBox="0 0 20 20" fill="none" xmlns="http://www.w3.org/2000/svg">
<path d="M10 20C15.5139 20 20 15.5139 20 10C20 4.48613 15.5139 0 10 0C4.48613 0 0 4.48613 0 10C0 15.5139 4.48613 20 10 20ZM10 0.999184C14.9633 0.999184 19.0008 5.03671 19.0008 10C19.0008 14.9633 14.9633 19.0008 10 19.0008C5.03671 19.0008 0.999184 14.9633 0.999184 10C0.999184 5.03671 5.03671 0.999184 10 0.999184Z" fill="#3F3F3F"/>
<path d="M7.35287 12.6468C7.45075 12.7447 7.57718 12.7937 7.70769 12.7937C7.83819 12.7937 7.96462 12.7447 8.0625 12.6468L10.0038 10.7056L11.945 12.6468C12.0429 12.7447 12.1693 12.7937 12.2999 12.7937C12.4304 12.7937 12.5568 12.7447 12.6547 12.6468C12.8504 12.4511 12.8504 12.137 12.6547 11.9413L10.7052 10L12.6465 8.05873C12.8423 7.86297 12.8423 7.54894 12.6465 7.35318C12.4508 7.15742 12.1367 7.15742 11.941 7.35318L9.99969 9.29446L8.05842 7.35318C7.86266 7.15742 7.54863 7.15742 7.35287 7.35318C7.15712 7.54894 7.15712 7.86297 7.35287 8.05873L9.29415 10L7.35287 11.9413C7.15712 12.137 7.15712 12.4511 7.35287 12.6468Z" fill="#3F3F3F"/>
</svg>
