<?xml version="1.0" encoding="utf-8"?>
<!-- Generator: Adobe Illustrator 23.1.1, SVG Export Plug-In . SVG Version: 6.00 Build 0)  -->
<svg version="1.1" id="圖層_1" xmlns="http://www.w3.org/2000/svg" xmlns:xlink="http://www.w3.org/1999/xlink" x="0px" y="0px"
	 viewBox="0 0 50 50" style="enable-background:new 0 0 50 50;" xml:space="preserve">
<style type="text/css">
	.st0{fill:#FFFFFF;}
</style>
<title>icon</title>
<path class="st0" d="M25,0.8h21.5c1.5-0.2,2.8,0.9,3,2.4c0,0.2,0,0.4,0,0.6v24.7c0.1,1.4-0.9,2.7-2.4,2.8c-0.2,0-0.4,0-0.5,0H3.4
	C2,31.5,0.7,30.5,0.5,29c0-0.2,0-0.4,0-0.6V3.6C0.3,2.2,1.3,1,2.7,0.8c0.2,0,0.4,0,0.6,0H25z M23.4,9.6h-0.1
	c-2.2-0.3-4.2,1.3-4.4,3.5c-0.3,2.2,1.3,4.2,3.5,4.4c0.4,0,0.8,0,1.2,0h2.7c0.8,0,1.2,0.3,1.2,0.9c0,0.5-0.5,0.8-1.2,0.8h-4.1
	c-0.8-0.1-1.4,0.5-1.5,1.3c0,0.1,0,0.1,0,0.2c0,0.8,0.7,1.5,1.5,1.5h1.3v1.1c-0.1,0.8,0.6,1.5,1.4,1.6c0,0,0.1,0,0.1,0
	c0.8-0.1,1.5-0.8,1.5-1.6v-1h0.9c2.1-0.5,3.4-2.6,2.9-4.7c-0.4-1.7-1.9-3-3.6-3h-3.3c-0.4,0.1-0.8-0.2-0.9-0.7c0-0.1,0-0.1,0-0.2
	c0-0.5,0.4-0.9,0.9-0.9h3.8c1.4,0,2-0.5,2.1-1.5s-0.7-1.5-2.1-1.5h-0.6C26.3,7.6,26,7,25,7S23.6,7.6,23.4,9.6z M7.3,20.7v-8.6
	c-0.1-0.5,0.1-0.7,0.6-0.9c2.3-0.6,4.1-2.5,4.7-4.8c0.2-0.8-0.2-1.6-1-1.9c0,0-0.1,0-0.1,0c-0.8-0.2-1.6,0.2-1.9,1c0,0,0,0.1,0,0.1
	c-0.3,1.8-2,3-3.8,2.9c-0.9,0-1.6,0.7-1.6,1.6l0,0V22c-0.1,0.8,0.6,1.5,1.4,1.6c0.1,0,0.1,0,0.2,0c1.9-0.1,3.5,1.2,3.9,3
	c0.1,0.8,0.9,1.3,1.6,1.1c0.1,0,0.1,0,0.2,0c0.8-0.2,1.2-1.1,1-1.9c0,0,0,0,0,0c-0.3-0.9-0.6-1.7-1.1-2.5C10.4,22,8.9,21,7.3,20.7z
	 M42.7,20.7L42.7,20.7l-0.6,0.2c-2.3,0.6-4,2.4-4.6,4.7c-0.3,0.8,0.1,1.8,0.9,2.1c0,0,0.1,0,0.1,0c0.9,0.2,1.7-0.4,1.9-1.2
	c0,0,0,0,0-0.1c0.4-1.6,1.9-2.8,3.6-2.8c1.2,0,1.7-0.6,1.7-1.8V10.3c0.1-0.9-0.5-1.7-1.4-1.8c-0.1,0-0.2,0-0.3,0
	c-1.7,0-3.3-1.2-3.6-2.9c0-0.9-0.7-1.6-1.6-1.6c-0.9,0-1.6,0.7-1.6,1.6c0,0.3,0.1,0.5,0.2,0.7c0.6,2.4,2.4,4.3,4.8,4.9
	c0.3,0.1,0.5,0.1,0.5,0.5V20.7z"/>
<path class="st0" d="M23.5,43.9V33.8c0-0.8,0.7-1.5,1.5-1.5s1.5,0.7,1.5,1.5v10.1h0.1l2.3-2.3c0.3-0.4,0.9-0.6,1.4-0.5
	c0.6,0,1,0.5,1.1,1c0.2,0.6,0.1,1.2-0.4,1.6L27.7,47l-1.6,1.6c-0.6,0.6-1.5,0.6-2.1,0.1c0,0-0.1-0.1-0.1-0.1l-5-5
	c-0.6-0.5-0.6-1.4-0.1-2c0,0,0.1-0.1,0.1-0.1c0.5-0.6,1.4-0.6,2-0.1c0,0,0.1,0.1,0.1,0.1l2.4,2.5L23.5,43.9z"/>
</svg>
