<?xml version="1.0" encoding="utf-8"?>
<!-- Generator: Adobe Illustrator 23.1.1, SVG Export Plug-In . SVG Version: 6.00 Build 0)  -->
<svg version="1.1" id="圖層_1" xmlns="http://www.w3.org/2000/svg" xmlns:xlink="http://www.w3.org/1999/xlink" x="0px" y="0px"
	 viewBox="0 0 50 50" style="enable-background:new 0 0 50 50;" xml:space="preserve">
<style type="text/css">
	.st0{fill:#FFFFFF;}
</style>
<title>icon</title>
<path class="st0" d="M49.4,28.5c0-0.9-0.5-1.6-1.3-2l-1-0.6c-0.8-0.5-1.4-1.4-1.6-2.3c-0.2-0.9-0.5-1.7-0.9-2.5
	c-0.5-1.1-0.5-2.3,0-3.4c1-2.2,1.9-4.5,2.9-6.7c0-0.2,0.1-0.3,0.2-0.5h-0.3c-2.9,0.1-5.7,0.7-8.3,2c-1,0.7-2.2,0.7-3.3,0.2
	c-5.4-2.5-11.5-2.9-17.2-1c-6.4,2-11,6-12.6,13c-0.7-0.3-1.2-0.8-1.5-1.4c-0.2-0.7-0.3-1.4-0.4-2.1c-0.1-1-0.8-1.7-1.8-1.7
	c-1,0-1.8,0.8-1.8,1.8c0,0.5,0,0.9,0.1,1.4c0.6,2.9,2.1,5,5.1,5.7c0.2,0,0.4,0.3,0.4,0.5c0.4,2.3,1.3,4.5,2.8,6.4
	c0.7,0.8,1.2,1.8,1.6,2.8l3.4,7.8c0.7,1.7,2.4,2.8,4.3,2.6c2.1-0.2,3.7-2.2,3.4-4.3c0-0.1,0-0.1,0-0.2c0-0.8,0.4-1.2,1-1.1
	c2.2,0.3,4.4,0.3,6.6,0c0.4-0.1,0.9,0.1,1,0.6c0,0.1,0,0.2,0,0.3v0.4c-0.2,2,1.1,3.8,3,4.2c2,0.5,4-0.6,4.7-2.5
	c0.8-1.7,1.5-3.4,2.2-5.1c0.5-1.2,1.5-2.1,2.8-2.3c1-0.3,2-0.6,3.1-0.7c0.8-0.2,1.5-0.7,1.9-1.4C49.2,34,49.7,31.2,49.4,28.5z
	 M32.1,14.2c-0.1,0.4-0.5,0.6-0.9,0.5c0,0-0.1,0-0.1-0.1c-6.3-2.4-13.9,0.9-14,1h-0.3c-0.3,0-0.5-0.2-0.7-0.5c-0.1-0.4,0-0.8,0.4-1
	c0.4-0.2,8.2-3.6,15.1-1C32,13.3,32.2,13.8,32.1,14.2z M47,34.7c-0.1,0.3-0.3,0.4-0.6,0.4H46c-0.4-0.2-0.5-0.7-0.3-1.1c0,0,0,0,0,0
	c0.5-1.3,0.8-2.8,0.7-4.2c0-0.4,0.4-0.8,0.8-0.8c0.4,0,0.7,0.3,0.8,0.7C48.1,31.4,47.7,33.1,47,34.7z"/>
<path class="st0" d="M27.7,2.4c-2.7-1.5-6-1.2-8.4,0.8c-2,1.8-2.8,4.4-2.2,7c1.9-0.7,3.8-1.1,5.8-1.3h-0.2l-0.5-0.5
	C22,8.2,21.9,8,21.8,7.7c-0.2-0.3-0.2-0.6-0.2-0.9c-0.1-0.6,0.1-1.1,0.4-1.6c0.3-0.4,0.7-0.7,1.2-0.9h0.1v-1c0-0.1,0-0.3,0.1-0.4
	l0.5-0.2l0.4,0.2l0.2,0.4v0.9h0.1l1.1,0.5c0.1,0.2,0.2,0.3,0.2,0.5c0,0.2-0.1,0.4-0.2,0.5c-0.1,0.2-0.3,0.2-0.5,0.2h-0.5l-0.6-0.2
	l-0.6,0.2c-0.1,0.2-0.2,0.4-0.2,0.6c0,0.2,0.1,0.4,0.2,0.5l0.4,0.5l0.6,0.4l0.6,0.4l0.4,0.4c1.9,0,3.9,0.2,5.8,0.5
	C31.7,6.8,30.1,3.8,27.7,2.4z"/>
</svg>
