<?xml version="1.0" encoding="utf-8"?>
<!-- Generator: Adobe Illustrator 23.1.1, SVG Export Plug-In . SVG Version: 6.00 Build 0)  -->
<svg version="1.1" id="圖層_1" xmlns="http://www.w3.org/2000/svg" xmlns:xlink="http://www.w3.org/1999/xlink" x="0px" y="0px"
	 viewBox="0 0 50 50" style="enable-background:new 0 0 50 50;" xml:space="preserve">
<style type="text/css">
	.st0{fill:#FFFFFF;}
</style>
<title>icon</title>
<path class="st0" d="M13,0.5C6.2,0.5,0.7,6,0.7,12.8S6.2,25.1,13,25.1s12.3-5.5,12.3-12.3l0,0C25.3,6,19.8,0.5,13,0.5z M13,23.3
	c-5.9,0-10.6-4.7-10.6-10.6C2.4,6.8,7.1,2.1,13,2.1s10.6,4.7,10.6,10.6c0,0,0,0.1,0,0.1C23.5,18.6,18.8,23.3,13,23.3z"/>
<path class="st0" d="M13,3.7c-5-0.1-9.1,4-9.2,9s4,9.1,9,9.2c5,0.1,9.1-4,9.2-9c0,0,0-0.1,0-0.1c0.1-5-3.9-9-8.9-9.1
	C13.1,3.7,13,3.7,13,3.7z M15,16.9c-0.4,0.5-0.9,0.9-1.5,1.1c-0.1,0-0.1,0-0.1,0.1l0,0v1.1c0,0.2-0.1,0.4-0.2,0.5l-0.5,0.2l-0.5-0.2
	C12,19.6,12,19.4,12,19.2v-1h-0.1c-0.6-0.1-1.2-0.3-1.7-0.6C10,17.4,9.9,17.2,9.8,17l0,0c0-0.2,0.1-0.4,0.2-0.6l0,0
	c0.1-0.2,0.3-0.3,0.5-0.3h0.6c0.3,0.3,0.8,0.4,1.2,0.4c0.5,0.1,1-0.3,1.1-0.9c0-0.1,0-0.1,0-0.2c0-0.2,0-0.5-0.1-0.7
	c-0.2-0.3-0.3-0.5-0.6-0.6l-0.6-0.5L11.3,13l-0.7-0.6c-0.2-0.3-0.4-0.5-0.5-0.8c-0.1-0.4-0.2-0.8-0.2-1.2c0-0.6,0.2-1.3,0.5-1.8
	c0.4-0.5,0.9-0.8,1.5-1H12V6.3c0-0.2,0.1-0.4,0.2-0.5l0.5-0.2l0.5,0.2c0.1,0.2,0.2,0.3,0.2,0.5v1c0,0.1,0,0.2,0.1,0.2
	c0.5,0.1,0.9,0.3,1.3,0.6c0.2,0.2,0.3,0.4,0.3,0.6c0,0.2-0.1,0.4-0.2,0.6l-0.6,0.3l0,0l-0.6-0.2c-0.2-0.2-0.4-0.2-0.7-0.2
	c-0.3,0-0.6,0-0.7,0.2C12.1,9.6,12,9.8,12,10.1c0,0.2,0.1,0.5,0.2,0.7l0.5,0.5l0.7,0.5l0.7,0.5c0.3,0.2,0.5,0.4,0.7,0.7
	c0.2,0.2,0.4,0.6,0.5,0.9c0.2,0.4,0.2,0.8,0.2,1.2C15.5,15.7,15.3,16.4,15,16.9z"/>
<path class="st0" d="M37,25c-6.8,0-12.3,5.5-12.3,12.3S30.2,49.6,37,49.6c6.8,0,12.3-5.5,12.3-12.3c0,0,0-0.1,0-0.1
	C49.2,30.4,43.8,25,37,25z M37,47.8c-5.9,0-10.6-4.7-10.6-10.6S31.1,26.6,37,26.6s10.6,4.7,10.6,10.6v0C47.6,43.1,42.9,47.8,37,47.8
	z"/>
<path class="st0" d="M37,28.2c-5-0.1-9.1,4-9.2,9s4,9.1,9,9.2s9.1-4,9.2-9c0-0.1,0-0.1,0-0.2C46,32.2,42,28.2,37,28.2z M39,41.4
	c-0.4,0.5-0.9,0.9-1.5,1.1c-0.1,0-0.1,0-0.1,0.1v1.1c0,0.2-0.1,0.3-0.2,0.5l-0.5,0.2l-0.5-0.2c-0.2-0.2-0.3-0.3-0.3-0.5v-1
	c0-0.1,0-0.1-0.1-0.1c-0.6-0.1-1.1-0.4-1.6-0.7c-0.2-0.1-0.3-0.3-0.4-0.5v-0.2c0-0.2,0.1-0.3,0.2-0.5l0,0c0.1-0.2,0.3-0.3,0.5-0.4
	h0.2l0.4,0.2c0.4,0.2,0.8,0.3,1.2,0.3c0.8,0,1.1-0.3,1.1-1c0-0.3,0-0.6-0.2-0.8l-0.5-0.6l-0.6-0.5l-0.8-0.5l-0.7-0.6
	c-0.2-0.3-0.4-0.6-0.5-0.9c-0.1-0.4-0.2-0.7-0.2-1.1c0-0.6,0.2-1.3,0.5-1.8c0.4-0.5,0.8-0.8,1.4-1c0.1,0,0.1,0,0.1-0.1v-1.1
	c0-0.2,0.1-0.4,0.3-0.5l0.5-0.2l0.5,0.2c0.1,0.1,0.2,0.3,0.2,0.5v1h0.1c0.5,0.1,0.9,0.4,1.3,0.7c0.2,0.2,0.3,0.4,0.3,0.6
	c0,0.2-0.1,0.4-0.2,0.6c-0.2,0.2-0.4,0.3-0.6,0.3l0,0l-0.6-0.2c-0.2-0.2-0.4-0.3-0.7-0.3c-0.6,0-1,0.4-1,1c0,0.2,0.1,0.4,0.2,0.6
	l0.5,0.6l0.7,0.5l0.7,0.5c0.3,0.2,0.5,0.4,0.7,0.7c0.2,0.2,0.4,0.6,0.5,0.9c0.1,0.4,0.2,0.7,0.2,1.1C39.5,40.1,39.4,40.8,39,41.4z"
	/>
<path class="st0" d="M44,17c-0.3-0.3-0.8-0.3-1.1,0l-4.1,4.1V8.7C38.7,8.3,38.4,8,38,8H27.2c-0.4-0.1-0.7,0.2-0.8,0.6
	c0,0,0,0.1,0,0.1c-0.1,0.4,0.2,0.7,0.6,0.8c0.1,0,0.1,0,0.2,0h10v11.6l-3.9-4c-0.2-0.4-0.7-0.5-1.1-0.3c-0.4,0.2-0.5,0.7-0.3,1.1
	c0.1,0.1,0.2,0.2,0.3,0.3l5.3,5.3h1L44,18C44.3,17.7,44.3,17.3,44,17C44,17,44,17,44,17z"/>
<path class="st0" d="M22.1,40.9h-10V29.3l3.9,3.9c0.3,0.3,0.8,0.3,1.1,0c0.3-0.3,0.3-0.7,0-1c0,0,0,0,0,0l-5.3-5.3l-0.2-0.2H11
	l-0.2,0.2l-5.4,5.4c-0.3,0.3-0.3,0.8,0,1.1l0.5,0.2l0.5-0.2l4.2-4.1v12.3c0,0.4,0.3,0.7,0.7,0.8h10.8c0.4,0,0.8-0.4,0.8-0.8
	c0-0.4-0.3-0.7-0.7-0.7C22.2,40.9,22.1,40.9,22.1,40.9z"/>
</svg>
